/* XPM */
static char *result[] = {
/* columns rows colors chars-per-pixel */
"64 64 6 1 ",
"  c #161C2E",
". c #977B6B",
"X c #D5B583",
"o c #EFE1AB",
"O c white",
"+ c None",
/* pixels */
"++++++++++++++++++++++++++++++++++++++++++++++++++++++++++++++++",
"++++++++++++++++++++++++++++++++++++++++++++++++++++++++++++++++",
"++++++++++++++++++++++++++++++++++++++++++++++++++++++++++++++++",
"++++++++++++++++++++++++++++++++++++++++++++++++++++++++++++++++",
"++++++++++++++++++++++++++++++++++++++++++++++++++++++++++++++++",
"++++++++++++++++++++++++++++++++++++++++++++++++++++++++++++++++",
"++++++++++++++++++++++++++++++++++++++++++++++++++++++++++++++++",
"++++++++++++++++++++++++++++++++++++++++++++++++++++++++++++++++",
"++++++++++++++++++++++++++++++++++++++++++++++++++++++++++++++++",
"++++++++++++++++++++++++++++++++++++++++++++++++++++++++++++++++",
"++++++++++++++++++++++++++++++++++++++++++++++++++++++++++++++++",
"++++++++++++++++++++++++++++++++++++++++++++++++++++++++++++++++",
"++++++++++++++++++++++++++++++++++++++++++++++++++++++++++++++++",
"++++++++++++++++++++++++++++++++++++++++++++++++++++++++++++++++",
"++++++++++++++++++++++++++++++++++++++++++++++++++++++++++++++++",
"++++++++++++++++++++++++++++++++++++++++++++++++++++++++++++++++",
"+++++++++++++++++++++++++++++++++++++++++     ++++++++++++++++++",
"++++++++++++++++++++++++++++++++++++++++       +++++++++++++++++",
"+++++++++++++++++++++++++++++++++++++++   ooo   ++++++++++++++++",
"+++++++++++++++++++++++++++++++++++++++  oOooo  ++++++++++++++++",
"+++++++++++++++++++++++++++++++++++++++  oOOoo  ++++++++++++++++",
"++++++++++++++++++++++++++++++++++++++   oOOoo   +++++++++++++++",
"+++++++++++++++++++++++++++++++++++++   Xoooo     ++++++++++++++",
"++++++++++++++++++++++++++++++++++++    Xooo  oo   +++++++++++++",
"+++++++++++++++++++++++++++++++++++   XooooXXoooo  +++++++++++++",
"++++++++++++++++++++++++++++++++++   oooooXXooooo  +++++++++++++",
"+++++++++++++++++++++++++++++++++   oooooXX.ooooX  +++++++++++++",
"+++++++++++++++++++++++++++++++    oOoooXX..XooXX  +++++++++++++",
"++++++++++++++++++++++++++++++   ooOooXX.   ..XX  ++++++++++++++",
"+++++++++++++++++++++++++++++   oOOooXX        +++++++++++++++++",
"+++++++++++++++++++++++++++   XoOOooXX    ++++++++++++++++++++++",
"++++++++++++++++++    +++    ooOOooXX   ++++++++++++++++++++++++",
"+++++++++++++++++           oooOoXXX  ++++++++++++++++++++++++++",
"++++++++++++++++   ooo    XoooooXX.+++++++++++++++++++++++++++++",
"+++++++++++++++   oooooXXXXoooXXX ++++++++++++++++++++++++++++++",
"+++++++++++++++  ooooooXXXXXXX.. +++++++++++++++++++++++++++++++",
"+++++++++++++++  ooooooXXX..XX  ++++++++++++++++++++++++++++++++",
"+++++++++++++++   XoooXX.....  +++++++++++++++++++++++++++++++++",
"+++++++++++++++     XXXXXX.   ++++++++++++++++++++++++++++++++++",
"++++++++++++++++      XoXX   +++++++++++++++++++++++++++++++++++",
"++++++++++++++++++  XoooXX  ++++++++++++++++++++++++++++++++++++",
"++++++++++++++++++  XooXXX  ++++++++++++++++++++++++++++++++++++",
"++++++++++++++++++  XXXXX   ++++++++++++++++++++++++++++++++++++",
"++++++++++++++++++   XXX   +++++++++++++++++++++++++++++++++++++",
"+++++++++++++++++++    +++++++++++++++++++++++++++++++++++++++++",
"++++++++++++++++++++++++++++++++++++++++++++++++++++++++++++++++",
"++++++++++++++++++++++++++++++++++++++++++++++++++++++++++++++++",
"++++++++++++++++++++++++++++++++++++++++++++++++++++++++++++++++",
"++++++++++++++++++++++++++++++++++++++++++++++++++++++++++++++++",
"++++++++++++++++++++++++++++++++++++++++++++++++++++++++++++++++",
"++++++++++++++++++++++++++++++++++++++++++++++++++++++++++++++++",
"++++++++++++++++++++++++++++++++++++++++++++++++++++++++++++++++",
"++++++++++++++++++++++++++++++++++++++++++++++++++++++++++++++++",
"++++++++++++++++++++++++++++++++++++++++++++++++++++++++++++++++",
"++++++++++++++++++++++++++++++++++++++++++++++++++++++++++++++++",
"++++++++++++++++++++++++++++++++++++++++++++++++++++++++++++++++",
"++++++++++++++++++++++++++++++++++++++++++++++++++++++++++++++++",
"++++++++++++++++++++++++++++++++++++++++++++++++++++++++++++++++",
"++++++++++++++++++++++++++++++++++++++++++++++++++++++++++++++++",
"++++++++++++++++++++++++++++++++++++++++++++++++++++++++++++++++",
"++++++++++++++++++++++++++++++++++++++++++++++++++++++++++++++++",
"++++++++++++++++++++++++++++++++++++++++++++++++++++++++++++++++",
"++++++++++++++++++++++++++++++++++++++++++++++++++++++++++++++++",
"++++++++++++++++++++++++++++++++++++++++++++++++++++++++++++++++"
};
