/* XPM */
static char *result[] = {
/* columns rows colors chars-per-pixel */
"64 64 5 1 ",
"  c #9E8776",
". c #A39681",
"X c #C9AA8E",
"o c #CCB88D",
"O c None",
/* pixels */
"OOOOOOOOOOOOOOOOOOOOOOOOOOOOOOOOOOOOOOOOOOOOOOOOOOOOOOOOOOOOOOOO",
"OOOOOOOOOOOOOOOOOOOOOOOOOOOOO  OOOOOOOOOOOOOOOOOOOOOOOOOOOOOOOOO",
"OOOOOOOOOOOOOOOOOOOOOOOOOOOO   OOOOOOOOOOOOOOOOOOOOOOOOOOOOOOOOO",
"OOOOOOOOOOOOOOO  OOOOOOOOOO    OO  OOOOOOOOOOOOOOOOOOOOOOOOOOOOO",
"OOOOOOOOOOOOO    OOO           O                    OOO   OOOOOO",
"OOOOOO   OOO     OO           OO                     OO    OOOOO",
"OOOOO    OOX    OOo           oo                     XO     OOOO",
"OOOO     OXXooOOOooooXXXoX  ooooXXXoooo    ooXXX  XXXXO..   OOOO",
"OOOO   ..XXooOOOoooooooooXXXXXXXXXXXXXXo   XXXXXXXXXXXXO..  OOOO",
"OOOO   OXXooOOOOooooooXXXXXXXXXXXXXXXXooo  XXXXXXXXXXXooOO  OOOO",
"OOOOOOOXoooOOOOooooooXXXXXXXXXXXXXXXXoooooXXXXXXXXXXXooooOO OOOO",
"OOOOOOOXoooOOOoooooXXXXXXXXXXXXXXXXXoooooXXXXXXXXXXXoooooXOOOOOO",
"OOOOOOXXXXOOOXXXXXXXXXXXoooooooooooooooooXXXXXXXXXXXoooooo OOOOO",
"OOOO  XXXXOOXXXXXXXXXXXXooooooooooooooooXXXXXXXXXXXooooooo  OOOO",
"OOOO  XXOOOOXXXXXXXXXXXXoooooooooooooooXXXXXXXXXXXoooXoooo  OOOO",
"OOOO  oOOOOXXXXXXXXoooXoooooooooooooooXXXXXXXXXXXoooXooooo  OOOO",
"OOOO  oOOOXXXXXXXXoooooooooooooooooooXXXXXXXXXXXooooXoXooo  OOOO",
"OOOO  OOOXXXXXXXXXoooooooooooooooooooXXXXXXXXXoooooXXXoXoo  OOOO",
"OOOO  OOXXXXXXXXXoooooooooooooooooooooXXXXXXXooooooXXXXoooo OOOO",
"OOOO OOXXXXXXXXXooooXXXoooooooooooooooXXXXXXooooooXXXXXoooo OOOO",
"OOOOXXXXXXXXXXXooooXXXXooooooooooXoooooXXXXXoooooXXXXXXXooo OOOO",
"OOOOXXXXXXXXXXooooXXXXooooooooooXXXooooXXXXooooXXXXXXXXXXoo OOOO",
"OOOOXXXXXXXXXooooXXXXooooooooooXXXXXoooXXoooooXXXXXXXXXXXXX OOOO",
"OOOO XXXXXXXooooXXXXooooooooooXXXXXXoooooooooXXXXooXXXXXXoo OOOO",
"OOOX XXXXXXooooXXXXoooooooooooXXXXXXXoooooooXXXoooooooXXooo OOOO",
"OOOX XXXXXooooXXXXoooooooooooXXXXXXXXooooooXXXoooooooXXXooo OOOO",
"OOOO XXXXXoooXXXXooooooooooooXXXXXXooooooXXXXoooooooXXXXXXo OOOO",
"OOOO XXXXoooXXXXoooooooooooooXXXXXooooooXXXXoooooooXXXXXXXX OOOO",
"OOOO XXoooXXXXXooooooooooooooXXXXooooooXXXooooooooXXXXXXXXX OOOO",
"OOOO  ooooXXXXooooooooooooooooXXooooooXXXooooooooXXXXXXXXX  OOOO",
"OOOO  ooXXXXoooooooooooooooooooooooooXXXXoooooooXXXXXXXXXX OOOOO",
"OOOO  oXXXXoooXXXooooooooooooooooooXXXXooooooooXXXXXXXXXXX XOOOO",
"OOOO  XXXXooooXXXoooooooooooooooooXXXXoooooooooXXXXXXXXXXXXXOOOO",
"OOOO  XXXooooooXXXooXXXXXXXooooooooXXoooooooooXXXXXoXXXXXXXXOOOO",
"OOOO  XXoooooooXXXooXXXXXXoooooooooooooooooooXXXXXooXXXXXXXXOOOO",
"OOOOo ooooooooooXXXoXXXXXoooooooooooooooooooXXXXXXoXXXXXooXXOOOO",
"OOOOooooooooooooXXXXXXXXoooooooooooooooooooXXXXXooXXXXXXooXXOOOO",
"OOOOooooooooooooXXXXXXXXooooooooooooooooooXXXXXXoXXXXXXXooXXOOOO",
"OOOO ooooooooooooXXXXXXooooooooooooooooooXXXXXXoXXXXXXXXoooXOOOO",
"OOOO ooXXXXooooooXXXXXoooooooooooooooooooXXXXooXXXXXXXXXoooXOOOO",
"OOOO ooXXXXXoooooXXXXXooooooXXXooooooooXXXXXooXXXXXXXXXXXoooOOOO",
"OOOO XXXXXXXoooXXXXXXXoooooXXXXoooooooXXXXXooXXXXXXXXXXXXoooOOOO",
"OOOO XXXXXooooXXXXXoXXXoooXXXXooooooooXXXXooXXXXXXXXXXXXXoooOOOO",
"OOOO XXXooooooXXXooooXXXoXXXXoooooooXXXXoooXXXXXXXooXoooXoooOOOO",
"OOOO XXooooooooooooooXXXXXXXooooooooXXXXooXXXXXXXXooooooooOOOOOO",
"OOOO XoooooooooooooooXXXXXXooooooooooooooXXXXXXXXXXoooXXoOOOOOOO",
"OOOOOoooooooooooooooXXXXXoooooooooooooooXXXXXXXXXooooXXooOOOOOOO",
"OOOOOOoooooooooooooXXXXXoooooooooooooooXXXXXXXXXoooooXooOOOoOOOO",
"OOOOOOOooooooooooXXXXXooooooooooooooooXXXXXXXXXooooXXooOOOooOOOO",
"OOOooOOoooooooooXXXXXoooooooooooooooooXXXXXXXoooooXXXXOOOOooOOOO",
"OOOooOOOooooooooXXXXoooooooooooooooooXXXXXXXooooXXXXXOOOOooXOOOO",
"OOOoooOOoooXooXXXXooooooooooooooooXXXXXXXXXooooXXXXXOOOOooXXOOOO",
"OOOOooOOOooXXXXXXXooooooooooooooXXXXXXXXXooooooooooOOOooooXOOOOO",
"OOOOoooOOOXXXXXXoooooooooooooooXXXXXXXXXoooooooooooOOoooooOOOOOO",
"OOOOooooOOXXXooooooooXXooooooooooooooooooooooooooooooooooOOOOOOO",
"OOOOOoooOOOoooooooooXXXoooooooooooooooooooooooooooooooooOOOOOOOO",
"OOOOOoXXXOOooooooooXXXXoooooooooooooooooooooooooooooooooOOOOOOOO",
"OOOOOOXXXOOOoooooXXXXoooooooXXXXXXXXXXooXXXOOOooooXXXooOOOOOOOOO",
"OOOOOOXXXoOOooooXXXXooooooooXXXXXXXXXXXXXXXOOOoooXXXXoOOOOOOOOOO",
"OOOOOOOXooOOOooXOOXXoooooooXXXXXXXXXXXXXXXXOOoooXXXooOOOOOOOOOOO",
"OOOOOOOOOOOOOOXXXOOOOOOOOOOOOOOOOOOOOOOOOOOOOOOOOOOOOOOOOOOOOOOO",
"OOOOOOOOOOOOOOOXXOOOOOOOOOOOOOOOOOOOOOOOOOOOOOOOOOOOOOOOOOOOOOOO",
"OOOOOOOOOOOOOOOOOOOOOOOOOOOOOOOOOOOOOOOOOOOOOOOOOOOOOOOOOOOOOOOO",
"OOOOOOOOOOOOOOOOOOOOOOOOOOOOOOOOOOOOOOOOOOOOOOOOOOOOOOOOOOOOOOOO"
};
