/* XPM */
static char *result[] = {
/* columns rows colors chars-per-pixel */
"64 128 12 1 ",
"  c #161C2E",
". c #684948",
"X c #866353",
"o c #8E4B64",
"O c #977B6B",
"+ c #DB4C4C",
"@ c #B48355",
"# c #EB876A",
"$ c #DAB570",
"% c #D5B583",
"& c #EFE1AB",
"* c None",
/* pixels */
"****************************************************************",
"****************************************************************",
"****************************************************************",
"********************************   *****************************",
"*******************************      ***************************",
"******************************  @$$   **************************",
"*****************************  $$$@$  **************************",
"***************************** $$@$@$@  *************************",
"***************************** @$@@@$$  *************************",
"*****************************  $$$$$ X *************************",
"****************************    @X   X  ************************",
"***************************    X@@@XX     **********************",
"**************************     X@@@XX      *********************",
"*************************   %% X@@XX   OO   ********************",
"************************   %%%  %%%   %%OO   *******************",
"************************  %&&&&%%%%%%%%%OOO  *******************",
"***********************   &&&&&&&&&&&&&%O%O  *******************",
"***********************  &   &&&&   &&&&%%O   ******************",
"***********************       &&     &&&%%OO  ******************",
"***********************       &&      &&%%%O  ******************",
"***********************       &       &%%%%O  ******************",
"***********************       &       %%%%%   ******************",
"************************      &       %%%%%   ******************",
"***********************  %   &&      %%%%%O   ******************",
"**********************   &&&&&&&     %%%OOO  *******************",
"**********************  &&&&   &&&%%%%%%%O   *******************",
"*********************  &&&%&   &&&%%%%%OO   ********************",
"*********************  &&%%&  &&&&&%OOOO   *********************",
"*********************  && %&&&&%&&&%%O    **********************",
"*********************     &&&&%%&&&%     ***********************",
"**********************    %&&& %&&&    *************************",
"*************************  &&& &&&&  ***************************",
"*************************      &&&   ***************************",
"**************************            **************************",
"*****************************         **************************",
"****************    *********  X@X    *********    *************",
"***************       *******  X@X X   *******       ***********",
"**************  ###    ******  XXXXX   ******   &&&   **********",
"*************  ++####   ******  @@XX   ****    &&&&&   *********",
"************  +++##+++   *****  @@XX   ***    &&#&&&&   ********",
"************ o+++##++++    ***  @@XX   **    ####&####   *******",
"***********  oo+#  #+++++   *    X          ### +  ####  *******",
"*********    oo+     +++++    %     %&     ###  ++  ####  ******",
"********  ++o o  ooo  ++o++   %%%&&%%    ####  ++++  ###   *****",
"********  ++o   ooooooo+oo++   &%&&%   ##### +++++  +####  *****",
"********  +++o ooooooooo+oo+o    %%   ##### +++++o +++ ##  *****",
"********       ooooooooo +oooo      #####  +++++oo++++  #  *****",
"********    o   oooooooo  oooo     #####+++++++oo++++++    *****",
"*********   ooo ooooooooo   oo   ##### ++++++++o+++++++   ******",
"*********    ooooooooooooo      ##### ++++++++++++++++    ******",
"**********   ooooooooooooo     ####  ++++++++++++++++   ********",
"***********   ooo oooooo     #####  +++++ooooooo      **********",
"************   oo  oooo    +++### +++++ooooo         ***********",
"*************   oo  oo    +#### ++++++++++++++o  ***************",
"**************   oo     ###### +++++++++++++++o  ***************",
"***************   o    ######     +++++++++++    ***************",
"****************     #######       ++o++++++    ****************",
"*****************   ######    @@@   oo+++++    *****************",
"****************   +####  +  @@@@@  o++++     ******************",
"***************   ++++#  ++  .@@@.  ++++  oo   *****************",
"**************  ######+++++  .....  ++   oooo   ****************",
"************   #####  +++++o  ...      o  oooo   ***************",
"***********   #####  ++++++oo        oooo  oo++   **************",
"*********   ++##+o  ++++++++oo     o  oooo  ++++   *************",
"********   #####+o  ++++++++oooo  ooo  oooo  ++++   ************",
"*******   ######oo  +++o+++++o    oooo  oooo  ++++  ************",
"*******  +######oo# ++oo+++++    oooooo  oooo o++++  ***********",
"*******  ####+  ###+++o++++  %   ooooooooooooo o+++  ***********",
"*******    +++++++++++++++    %   ooooooooooooooo+++ ***********",
"*******   ++++++++++++++++    OO   oooooooooooooo ++ ***********",
"*******   ++++++++++++++     %%&&   ooooooooooooo  + ***********",
"********  +++++++o+++++   *   %&&&   ooooooooooooo   ***********",
"*********  +++++oo++++   ***   &&&%   oooooooo ooo   ***********",
"*********   +++oo+++    *****   &&     ooooooo  oo  ************",
"**********   +oo+++    ******   %OO     ooooooo    *************",
"***********   o+++   *******   &&&&%     oooooo  ***************",
"************   o    *******    &&&&%  **   ooo   ***************",
"*************      *******  %O  &&&   ***       ****************",
"**************   ********* O%%       *****     *****************",
"************************** %%%       ***************************",
"************************** OO   XX   ***************************",
"**************************  O  XXX X ***************************",
"**************************     XXX X  **************************",
"***************************    X@@ X  **************************",
"****************************** X@@ X  **************************",
"****************************** X@@XXX  *************************",
"****************************** X@@X@X  *************************",
"******************************  @@X@X  *************************",
"******************************  X@X@@  *************************",
"******************************  X@X@@  *************************",
"*******************************  @@@@  *   *********************",
"*******************************  @@@@       ********************",
"*****************************    @X@@    @$$ *******************",
"***************************** X  @X@@    @$@ *******************",
"***************************** X  @ @@  @ $$  *******************",
"******************************   X @  X@X   ********************",
"*******************************  X @ X@@X  *********************",
"******************************** X   @@X  **********************",
"*********************************   XXX  ***********************",
"***********************************XXX  ************************",
"****************************************************************",
"****************************************************************",
"****************************************************************",
"****************************************************************",
"****************************************************************",
"****************************************************************",
"****************************************************************",
"****************************************************************",
"****************************************************************",
"****************************************************************",
"****************************************************************",
"****************************************************************",
"****************************************************************",
"****************************************************************",
"****************************************************************",
"****************************************************************",
"****************************************************************",
"****************************************************************",
"****************************************************************",
"****************************************************************",
"****************************************************************",
"****************************************************************",
"****************************************************************",
"****************************************************************",
"****************************************************************",
"****************************************************************",
"****************************************************************",
"****************************************************************"
};
