/* XPM */
static char *result[] = {
/* columns rows colors chars-per-pixel */
"64 128 12 1 ",
"  c #161C2E",
". c #2A3E5D",
"X c #387253",
"o c #684948",
"O c #866353",
"+ c #2F966A",
"@ c #7CBB4E",
"# c #B48355",
"$ c #DAB570",
"% c #1F6782",
"& c #50ADA4",
"* c None",
/* pixels */
"****************************************************************",
"****************************************************************",
"****************************************************************",
"****************************************************************",
"****************************************************************",
"****************************************************************",
"****************************************************************",
"****************************************************************",
"****************************************************************",
"****************************************************************",
"****************************************************************",
"****************************************************************",
"****************************************************************",
"****************************************************************",
"****************************************************************",
"********************************     ***************************",
"*******************************   ++  **************************",
"*******************************  @@++  **     ******************",
"*******************************  +@@+X *  ++   *****************",
"*******************************  XXX++X  @+@+  *****************",
"*******************************   XXXXX  @@@+  *****************",
"********************************     XX @@@++  *****************",
"*****************************           ++++   *****************",
"**************************              XX    ******************",
"*************************    $$$$$$$$$      ********************",
"*************************  $$$###$$$$$$$    ********************",
"************************  #$$###$$####$$$  *********************",
"************************ #$$##$$$#$$$##$$$      ****************",
"************************ #$$##$$$##$$##$$$  X     **************",
"************************ $$$##$$$$$$$##$$$  X@++   *************",
"************************  #$$##$$$$###$$$#  +@@++  *************",
"************************  $$$$######$$$$$   ++@@+  *************",
"************************   #$$$$$$$$$$$$     +@++  *************",
"************************     #$$$$$$$$        ++   *************",
"************************    O#########OO    *     **************",
"***************   ******  OOO###$##$##OO    ********************",
"**************    ******  OOO#O#$##$##OOO   ********************",
"*************      *****   OOOO#$$#####OO   ********************",
"************        *****  OOOO#$$###O#OO   ********************",
"***********   &&&   *****  OOOO##$###OOOO   ********************",
"**********   &&&&&   ****  OOOO######OOOO             **********",
"*********   &&&%%%   ****       #####OO                *********",
"********   &&&&&&&%                %%%%%%&&&&&&&&&&&    ********",
"*******   %%%&&&%%%          &&&&&&&&&%%%&&&&&&%%%&&&&   *******",
"*******  %%&&&&%%%%  &&&&%%%%%&&&&&%%%%%%%&&&&&&%%%%%%    ******",
"******   &&&&&%%%%%   %%%%%&&&&&&&&&&&&&&&&&&&&&&&&&&&&    *****",
"*****   &&&&&%%%%%%   &&&&&&&&&&&&&&&&&&&&&&&&&&&&&&&&&&   *****",
"*****  &&&&&%%%..%%    &&&&&&&&&&&&&&&&%%%%%%%%%%%%         ****",
"****  &&&&&%%%..%...  %%%%%%%%%%%%%%%%%%%%%%%%%%%%%%%%%      ***",
"***  &&&&  %%%%%%%%%%%%%%%%%%%%%%%%%%%%%%%%%%%%%%%%%%%%%%%   ***",
"**  &&&&  %%%%%%%%%%%%%%%%%%%%%%    ...%%%%%%%%%%%%%%%%%%%   ***",
"**  &&&   %%%%%%%%%%%%%%.......       %%%%%%%%... %%%%%%%    ***",
"**  &&   %%%%%%...%%%%%%%%%%..   ###   %%%%%.. %%  %%..     ****",
"**      %%%%%...%%%..%%%%%%%%%  #####  %%%... %%%%    %%%   ****",
"***       ...%%%%%%%%%%%%%%%%%  o###o  %%%%%% %%%%%%%%%%   *****",
"***    %%%%%%%%%%%%%%%%%%%%%%%  ooooo  %%%%%%%.%%%%%%%%%   *****",
"*****  %%%%%%%%%%%%%%%%%%%%%%%   ooo  %%%%%%%%%%%%%%%%    ******",
"*****   %%%%%%%%%%%%%%%%%%%%%..       .%%%...%%%%%%%    ********",
"******   %%%%%%%%...%%%%%%%%%...    ...%%%%%.....      *********",
"*******   %%%%%%..%%..%%%%%%%..........%%%%%%%%%%%%%%% *********",
"********         %%%%%%%%%%%%%........%%%%%%%%%%%%%%%%  ********",
"*********** %  %%%%%               ...%%%%%%%    %%%%   ********",
"*********** %  %%%%    *                                ********",
"***********   %%%%%  ***    ooooooooo       ****       *********",
"************  %%%%%  ***  ooooooOooooooooo  ********************",
"************   %%%%  **  oooooooOOOOOooOoo  ********************",
"*************   %%%  **  ooOOOooOOOOOooOO  *********************",
"**************   %%  **  oOOOOOoO##OOOoOO   ********************",
"***************      **  oOOOOOOO##OOOOOO       ****************",
"****************     **  OOOO##OO###OOOOo    $$  ***************",
"***********************  OOO####O####OOOo   $$$$  **************",
"***********************  OO#####O####OoO    $##$  **************",
"***********************  oO#O#OO#O###OoO   #$##$  **************",
"***********************  oO#O##O#OO#OOo    #$$#$  **************",
"***********************   O#OO#O##OOOO  ##  ###   **************",
"***********************   O##OOO##OOOO O##OO     ***************",
"************************  OO######OOOO####OOO   ****************",
"************************   O#####OOOO####OOO   *****************",
"*************************   O###OOOO#####O    ******************",
"*************************   OOOOOOO#####O    *******************",
"*************************     OOOOOO###OO    *******************",
"*************************    OO###OOOOOOOO    ******************",
"************************    OO####OOOOOOOO     *****************",
"************************  OOO#########OOOO      ****************",
"***********************  OOOO###########OO   OO  ***************",
"********************     OOO############OO   OOO   *************",
"******************        OO##  #######OO#   OOOOO   ***********",
"*****************  OOO   ###O   ##### OOO##    OOOOOO***********",
"***************** OO    ####   ######  O####     O  ************",
"****************  O  #######  #######  O#####     **************",
"**************  OOO ####OO  #########  OO#####     *************",
"**************OOOO  ##OOO  ##########   O######     ************",
"***************     ##OO  ######  O###     ####O    ************",
"******************* ##O  #####O   O#OOO    O###O  **************",
"*******************  O  ######    OOOOO###  ###O  **************",
"******************** O  #####      OOO####  ####****************",
"*********************   O####        O#####  #******************",
"*********************   OOOOO ****    O####   ******************",
"*******************    OOOOO  *****    O###  *******************",
"*****************   ####OO   ********  OO##   ******************",
"*******************####OO  ***********  ************************",
"****************************************************************",
"****************************************************************",
"****************************************************************",
"****************************************************************",
"****************************************************************",
"****************************************************************",
"****************************************************************",
"****************************************************************",
"****************************************************************",
"****************************************************************",
"****************************************************************",
"****************************************************************",
"****************************************************************",
"****************************************************************",
"****************************************************************",
"****************************************************************",
"****************************************************************",
"****************************************************************",
"****************************************************************",
"****************************************************************",
"****************************************************************",
"****************************************************************",
"****************************************************************",
"****************************************************************",
"****************************************************************",
"****************************************************************",
"****************************************************************"
};
